# xmcd
#
# Track frame offsets: 
#        150
#        13270
#        30982
#        47257
#        64542
#        79775
#        93392
#        110545
#        128630
#        145140
#        162480
#        178725
#
# Disc length: 2583 seconds
#
# Revision: 1
# Processed by: cddbd v1.5.2PL0 Copyright (c) Steve Scherf et al.
# Submitted via: ExactAudioCopyFreeDBPlugin 1.0
#
DISCID=930a150c
DTITLE=Suzy Quatro - The Wild One (Japan)
DYEAR=1972
DGENRE=Rock
TTITLE0=The Wild One
TTITLE1=48 Crash
TTITLE2=Can The Can
TTITLE3=Devil Gate Drive
TTITLE4=Too Big
TTITLE5=Tear Me Apart
TTITLE6=Trouble
TTITLE7=Your Mamma Won´t Like Me
TTITLE8=Move It
TTITLE9=All Shook Up
TTITLE10=Shakin' All Over
TTITLE11=I Wanna Be Your Man
EXTD=
EXTT0=
EXTT1=
EXTT2=
EXTT3=
EXTT4=
EXTT5=
EXTT6=
EXTT7=
EXTT8=
EXTT9=
EXTT10=
EXTT11=
PLAYORDER=
